<svg width="238" height="227" viewBox="0 0 238 227" fill="none" xmlns="http://www.w3.org/2000/svg">
<g id="select/amico">
<g id="Floor">
<path id="floor" d="M34.8601 210.849C81.3306 232.383 156.674 232.383 203.145 210.849C249.615 189.314 249.621 154.408 203.145 132.878C156.669 111.348 81.3306 111.343 34.8543 132.878C-11.622 154.413 -11.6162 189.304 34.8601 210.849Z" fill="#F5F5F5"/>
</g>
<g id="Shadow">
<path id="shadow" d="M14.9327 183.898L17.0898 184.989C17.4768 185.161 17.9046 185.251 18.3385 185.251C18.7724 185.251 19.2002 185.161 19.5872 184.989L119.265 134.399C119.416 134.356 119.548 134.271 119.642 134.158C119.735 134.044 119.786 133.908 119.786 133.768C119.786 133.628 119.735 133.491 119.642 133.378C119.548 133.265 119.416 133.18 119.265 133.137L117.125 132.062C116.738 131.889 116.31 131.799 115.876 131.799C115.443 131.799 115.015 131.889 114.628 132.062L14.9327 182.631C14.782 182.676 14.6511 182.761 14.5585 182.875C14.4658 182.988 14.416 183.125 14.416 183.265C14.416 183.404 14.4658 183.541 14.5585 183.654C14.6511 183.768 14.782 183.853 14.9327 183.898Z" fill="#E0E0E0"/>
<path id="shadow_2" d="M158.831 202.122C175.631 202.122 189.25 195.559 189.25 187.463C189.25 179.367 175.631 172.804 158.831 172.804C142.032 172.804 128.413 179.367 128.413 187.463C128.413 195.559 142.032 202.122 158.831 202.122Z" fill="#E0E0E0"/>
<path id="shadow_3" d="M193.974 162.232C206.936 162.232 217.443 157.167 217.443 150.919C217.443 144.672 206.936 139.607 193.974 139.607C181.013 139.607 170.505 144.672 170.505 150.919C170.505 157.167 181.013 162.232 193.974 162.232Z" fill="#E0E0E0"/>
</g>
<g id="Plants">
<g id="plants">
<path id="Vector" d="M205.452 139.551C205.417 136.96 207.477 131.575 210.487 128.177C213.498 124.78 218.268 122.27 221.7 123.264C224.895 124.187 224.584 127.858 220.771 130.327C216.959 132.797 211.191 135.905 209.547 140.134L206.058 145.326L205.452 139.551Z" fill="#BD3193"/>
<path id="Vector_2" opacity="0.1" d="M205.452 139.551C205.417 136.96 207.477 131.575 210.487 128.177C213.498 124.78 218.268 122.27 221.7 123.264C224.895 124.187 224.584 127.858 220.771 130.327C216.959 132.797 211.191 135.905 209.547 140.134L206.058 145.326L205.452 139.551Z" fill="black"/>
<path id="Vector_3" d="M205.285 143.1C205.332 143.096 205.375 143.078 205.41 143.049C205.444 143.021 205.467 142.984 205.475 142.943C207.327 134.08 215.367 126.808 220.212 125.171C220.266 125.152 220.31 125.116 220.334 125.07C220.357 125.023 220.359 124.97 220.339 124.922C220.328 124.899 220.313 124.878 220.294 124.86C220.274 124.843 220.251 124.828 220.225 124.818C220.2 124.809 220.172 124.803 220.144 124.803C220.116 124.802 220.088 124.807 220.062 124.816C215.119 126.484 206.929 133.877 205.066 142.877C205.061 142.902 205.061 142.926 205.067 142.951C205.073 142.975 205.085 142.998 205.101 143.018C205.117 143.038 205.137 143.055 205.161 143.069C205.185 143.082 205.211 143.091 205.239 143.095L205.285 143.1Z" fill="white"/>
<path id="Vector_4" d="M206.888 148.744C207.344 147.283 209.334 144.86 212.575 142.837C216.168 140.605 220.736 139.546 221.769 137.827C223.009 135.758 221.013 133.841 217.299 134.277C213.584 134.713 207.113 139.252 206.156 145.975L206.888 148.744Z" fill="#BD3193"/>
<path id="Vector_5" d="M206.121 147.223C206.162 147.219 206.202 147.205 206.234 147.183C206.267 147.16 206.292 147.13 206.306 147.096C209.282 139.49 215.822 136.762 218.862 136.382C218.918 136.374 218.969 136.348 219.003 136.308C219.038 136.268 219.053 136.218 219.047 136.169C219.043 136.144 219.034 136.12 219.02 136.098C219.006 136.077 218.987 136.058 218.964 136.043C218.942 136.028 218.916 136.017 218.888 136.01C218.861 136.004 218.832 136.003 218.804 136.006C215.442 136.427 208.942 139.206 205.896 146.974C205.887 146.997 205.883 147.022 205.885 147.047C205.887 147.071 205.894 147.095 205.906 147.117C205.919 147.139 205.936 147.159 205.957 147.176C205.978 147.192 206.002 147.204 206.029 147.212C206.058 147.223 206.09 147.227 206.121 147.223Z" fill="white"/>
</g>
</g>
<g id="Tabs">
<g id="Tab">
<path id="Vector_6" d="M17.6204 182.621L17.182 182.398C16.8133 182.187 16.5064 181.902 16.2859 181.567C16.0655 181.233 15.9378 180.857 15.9131 180.471V50.5313C15.9382 50.1445 16.0661 49.7683 16.2865 49.4328C16.5068 49.0973 16.8135 48.8119 17.182 48.5994L112.419 0.266332C112.812 0.0912381 113.247 0 113.688 0C114.128 0 114.563 0.0912381 114.956 0.266332L115.389 0.489438C115.759 0.700729 116.066 0.98588 116.287 1.32162C116.507 1.65737 116.635 2.03419 116.658 2.42134V132.356C116.635 132.743 116.507 133.12 116.287 133.455C116.066 133.791 115.759 134.076 115.389 134.288L20.1582 182.621C19.7648 182.796 19.3301 182.887 18.8893 182.887C18.4484 182.887 18.0137 182.796 17.6204 182.621Z" fill="#BD3193"/>
<path id="Vector_7" opacity="0.4" d="M116.646 2.24387C116.56 1.66582 116.029 1.45285 115.395 1.7723L20.1524 50.1104C19.7795 50.3171 19.472 50.6031 19.2584 50.942L16.288 49.4208C16.5045 49.0821 16.8138 48.7962 17.1878 48.5893L112.419 0.266332C112.812 0.0912381 113.247 0 113.688 0C114.128 0 114.563 0.0912381 114.956 0.266332L115.395 0.489438C115.732 0.687962 116.018 0.946856 116.234 1.24918C116.449 1.55151 116.59 1.89047 116.646 2.24387Z" fill="white"/>
<path id="Vector_8" opacity="0.1" d="M19.9447 182.707C19.575 182.836 19.1783 182.896 18.7807 182.881C18.3831 182.866 17.9935 182.777 17.6376 182.621L17.1935 182.398C16.8248 182.186 16.5183 181.9 16.2988 181.565C16.0793 181.229 15.9531 180.852 15.9304 180.466V50.5313C15.9438 50.1443 16.0709 49.767 16.2995 49.436L19.2699 50.9572C19.0342 51.2821 18.8936 51.6531 18.8604 52.0373V181.977C18.8604 182.616 19.3449 182.915 19.9447 182.707Z" fill="black"/>
</g>
<g id="tabs">
<g id="tab">
<path id="Vector_9" d="M30.119 135.626L29.6806 135.403C29.312 135.192 29.005 134.908 28.7846 134.573C28.5641 134.238 28.4364 133.862 28.4117 133.476V110.121C28.4364 109.734 28.5641 109.358 28.7845 109.022C29.0049 108.687 29.3119 108.401 29.6806 108.189L116.145 64.2624C116.537 64.0873 116.971 63.9961 117.411 63.9961C117.851 63.9961 118.284 64.0873 118.677 64.2624L119.115 64.4855C119.485 64.6968 119.792 64.9819 120.013 65.3177C120.233 65.6534 120.361 66.0302 120.384 66.4174V89.7726C120.361 90.1591 120.233 90.5352 120.013 90.8701C119.792 91.205 119.485 91.4893 119.115 91.6994L32.6568 135.626C32.2635 135.801 31.8288 135.892 31.3879 135.892C30.947 135.892 30.5123 135.801 30.119 135.626Z" fill="#EBEBEB"/>
<path id="Vector_10" d="M120.372 66.24C120.286 65.6619 119.755 65.449 119.115 65.7684L32.651 109.7C32.2781 109.907 31.9706 110.193 31.757 110.532L28.7866 109.011C29.0005 108.669 29.3102 108.381 29.6864 108.174L116.145 64.2472C116.537 64.0722 116.971 63.981 117.411 63.981C117.851 63.981 118.284 64.0722 118.677 64.2472L119.115 64.4703C119.457 64.6683 119.747 64.9289 119.964 65.2343C120.181 65.5397 120.32 65.8828 120.372 66.24Z" fill="#FAFAFA"/>
<path id="Vector_11" d="M32.4376 135.718C32.0677 135.847 31.6707 135.906 31.2729 135.89C30.8752 135.874 30.4858 135.784 30.1305 135.626L29.6806 135.408C29.3146 135.194 29.0104 134.908 28.7921 134.573C28.5739 134.238 28.4476 133.862 28.4233 133.476V110.121C28.4367 109.734 28.5638 109.357 28.7924 109.026L31.7628 110.547C31.5366 110.879 31.4078 111.256 31.3879 111.642V135.003C31.3821 135.621 31.8435 135.92 32.4376 135.718Z" fill="#E0E0E0"/>
<path id="Vector_12" d="M44.8786 108.133C49.81 105.628 53.807 107.576 53.807 112.484C53.807 117.392 49.8042 123.355 44.8671 125.804C39.9299 128.254 35.9329 126.311 35.9329 121.454C35.9329 116.596 39.9472 110.638 44.8786 108.133Z" fill="#BD3193"/>
</g>
<g id="tab_2">
<path id="Vector_13" d="M30.119 167.277L29.6806 167.054C29.312 166.843 29.005 166.558 28.7846 166.224C28.5641 165.889 28.4364 165.513 28.4117 165.127V141.772C28.4364 141.385 28.5641 141.009 28.7845 140.673C29.0049 140.337 29.3119 140.052 29.6806 139.84L116.145 95.9132C116.537 95.7382 116.971 95.647 117.411 95.647C117.851 95.647 118.284 95.7382 118.677 95.9132L119.115 96.1364C119.485 96.3473 119.793 96.6324 120.014 96.9682C120.234 97.304 120.361 97.681 120.384 98.0683V121.423C120.361 121.81 120.233 122.186 120.013 122.521C119.792 122.856 119.485 123.14 119.115 123.35L32.6568 167.277C32.2635 167.452 31.8288 167.543 31.3879 167.543C30.947 167.543 30.5123 167.452 30.119 167.277Z" fill="#EBEBEB"/>
<path id="Vector_14" d="M120.372 97.8855C120.286 97.3074 119.755 97.0995 119.115 97.419L32.651 141.351C32.2796 141.557 31.9724 141.841 31.757 142.177L28.7866 140.656C29.0053 140.328 29.3148 140.054 29.6864 139.86L116.145 95.9333C116.537 95.7582 116.971 95.667 117.411 95.667C117.851 95.667 118.284 95.7582 118.677 95.9333L119.115 96.1564C119.452 96.3495 119.739 96.6036 119.956 96.9017C120.172 97.1999 120.315 97.5352 120.372 97.8855Z" fill="#FAFAFA"/>
<path id="Vector_15" d="M32.4376 167.363C32.0681 167.493 31.6713 167.553 31.2735 167.538C30.8758 167.523 30.4862 167.434 30.1305 167.277L29.6806 167.054C29.3137 166.841 29.0087 166.555 28.7903 166.219C28.5719 165.884 28.4462 165.508 28.4233 165.122V141.772C28.4359 141.384 28.5631 141.007 28.7924 140.676L31.7628 142.197C31.5372 142.532 31.4085 142.91 31.3879 143.298V166.658C31.3821 167.272 31.8435 167.571 32.4376 167.363Z" fill="#E0E0E0"/>
<path id="Vector_16" d="M44.8786 139.784C49.81 137.279 53.807 139.226 53.807 144.135C53.807 149.043 49.8042 155.006 44.8671 157.455C39.9299 159.904 35.9329 157.962 35.9329 153.105C35.9329 148.247 39.9472 142.284 44.8786 139.784Z" fill="#BD3193"/>
</g>
<g id="tab_3">
<path id="Vector_17" d="M30.119 82.6989L29.6806 82.4758C29.3119 82.2636 29.0049 81.9782 28.7845 81.6427C28.5641 81.3071 28.4364 80.9308 28.4117 80.5439V57.2089C28.4364 56.8228 28.5641 56.4471 28.7846 56.1124C29.005 55.7776 29.312 55.4932 29.6806 55.2821L116.145 11.3351C116.537 11.1601 116.971 11.0688 117.411 11.0688C117.851 11.0688 118.284 11.1601 118.677 11.3351L119.115 11.5582C119.485 11.7684 119.792 12.0526 120.013 12.3876C120.233 12.7225 120.361 13.0986 120.384 13.4851V36.8403C120.361 37.2275 120.233 37.6043 120.013 37.94C119.792 38.2758 119.485 38.5609 119.115 38.7722L32.6568 82.6989C32.2635 82.874 31.8288 82.9652 31.3879 82.9652C30.947 82.9652 30.5123 82.874 30.119 82.6989Z" fill="#EBEBEB"/>
<path id="Vector_18" d="M120.372 13.3077C120.286 12.7296 119.755 12.5217 119.115 12.8412L32.651 56.7729C32.2771 56.9762 31.9692 57.2609 31.757 57.5995L28.7866 56.0783C28.9991 55.737 29.3093 55.4503 29.6864 55.2467L116.145 11.32C116.537 11.1449 116.971 11.0537 117.411 11.0537C117.851 11.0537 118.284 11.1449 118.677 11.32L119.115 11.5431C119.457 11.74 119.746 11.9997 119.964 12.3043C120.181 12.6089 120.32 12.9512 120.372 13.3077Z" fill="#FAFAFA"/>
<path id="Vector_19" d="M32.4376 82.7849C32.0681 82.9151 31.6713 82.9747 31.2736 82.9598C30.8758 82.945 30.4862 82.856 30.1306 82.6987L29.6807 82.4756C29.3111 82.2621 29.0041 81.975 28.7846 81.6375C28.5651 81.3 28.4393 80.9218 28.4175 80.5335V57.2087C28.4299 56.82 28.5571 56.4408 28.7867 56.1084L31.7571 57.6296C31.5306 57.9635 31.4018 58.3415 31.3822 58.7299V82.0547C31.3822 82.6936 31.8436 82.9877 32.4376 82.7849Z" fill="#E0E0E0"/>
<path id="Vector_20" d="M44.8786 55.2062C49.81 52.7013 53.807 54.6484 53.807 59.5517C53.807 64.455 49.8042 70.4231 44.8671 72.8773C39.9299 75.3315 35.9329 73.3844 35.9329 68.5267C35.9329 63.6691 39.9472 57.7162 44.8786 55.2062Z" fill="#BD3193"/>
</g>
<g id="tab_4">
<path id="Vector_21" d="M36.1982 112.352L35.7598 112.129C35.3901 111.918 35.0824 111.632 34.8618 111.297C34.6413 110.961 34.5142 110.584 34.4909 110.197V86.8417C34.5151 86.4548 34.6426 86.0782 34.8631 85.7426C35.0835 85.407 35.3907 85.1217 35.7598 84.9098L122.218 40.9831C122.611 40.808 123.046 40.7168 123.487 40.7168C123.928 40.7168 124.362 40.808 124.756 40.9831L125.194 41.2012C125.563 41.4136 125.869 41.6991 126.09 42.0346C126.31 42.3701 126.438 42.7463 126.463 43.1331V66.4883C126.438 66.8752 126.311 67.2515 126.09 67.5871C125.87 67.9227 125.563 68.208 125.194 68.4202L38.7302 112.352C38.3379 112.527 37.9041 112.618 37.4642 112.618C37.0242 112.618 36.5905 112.527 36.1982 112.352Z" fill="#37474F"/>
<path id="Vector_22" d="M126.452 42.9607C126.365 42.3826 125.834 42.1697 125.194 42.4942L38.7303 86.4259C38.356 86.6305 38.0465 86.9148 37.8305 87.2524L34.8659 85.7313C35.0777 85.3898 35.3855 85.1018 35.7599 84.8946L122.218 40.9831C122.611 40.808 123.046 40.7168 123.487 40.7168C123.928 40.7168 124.363 40.808 124.756 40.9831L125.194 41.2012C125.535 41.398 125.824 41.657 126.041 41.9606C126.258 42.2642 126.398 42.6053 126.452 42.9607Z" fill="#455A64"/>
<path id="Vector_23" d="M38.5168 112.438C38.1471 112.568 37.7504 112.627 37.3528 112.612C36.9552 112.597 36.5656 112.509 36.2097 112.352L35.7656 112.129C35.3976 111.917 35.0915 111.631 34.8721 111.295C34.6527 110.96 34.5261 110.584 34.5025 110.197V86.8418C34.5179 86.4544 34.647 86.0771 34.8774 85.7466L37.842 87.2678C37.6174 87.6002 37.4905 87.9766 37.4729 88.363V111.723C37.4613 112.342 37.8939 112.641 38.5168 112.438Z" fill="#263238"/>
<path id="Vector_24" d="M50.9578 84.8543C55.8892 82.3545 59.8862 84.3016 59.8862 89.2049C59.8862 94.1081 55.8834 100.076 50.9462 102.53C46.0091 104.985 42.0063 103.037 42.012 98.1798C42.0178 93.3222 46.0264 87.3592 50.9578 84.8543Z" fill="#F5F5F5"/>
<path id="Vector_25" d="M51.1596 98.9656C51.0036 99.0696 50.8154 99.1297 50.6198 99.1378C50.4241 99.146 50.2303 99.1018 50.0638 99.0112L46.1417 96.4049C45.6169 96.055 45.6803 95.0967 46.2859 94.255C46.8915 93.4132 47.8086 93.0177 48.3277 93.3676L51.0616 95.1879L58.6577 80.8432C59.1306 79.9457 60.0362 79.322 60.6821 79.4995C61.3281 79.677 61.4665 80.5136 60.9878 81.3959L52.3132 97.774C52.0733 98.2451 51.6875 98.6475 51.2 98.9351L51.1596 98.9656Z" fill="#BD3193"/>
</g>
</g>
</g>
<g id="Hand">
<path id="Vector_26" d="M126.44 77.6438L123.931 76.371C122.841 75.8234 121.509 76.371 120.805 76.7463L119.219 75.9705C117.321 74.9563 114.68 77.0708 114.091 77.5728L113.411 77.233C111.398 76.1682 107.735 79.023 107.735 79.023V68.3645L109.327 67.6901L106.795 66.4022C106.432 66.2607 106.034 66.2054 105.639 66.2419C105.244 66.2784 104.867 66.4053 104.546 66.6101C103.609 67.1464 102.829 67.8695 102.27 68.7206C101.711 69.5717 101.388 70.5268 101.327 71.5083V96.1363C99.0204 94.6151 96.5518 93.7024 94.4062 94.0421C92.697 94.3933 91.2015 95.2988 90.2188 96.5774C89.1576 98.2304 90.9109 99.2648 93.1719 101.536C95.4328 103.808 97.3939 106.506 99.4356 108.179C100.443 109.077 101.64 109.793 102.96 110.288V113.493L105.44 114.756L121.866 103.899V100.69C121.866 100.69 124.208 92.4652 124.958 89.0273C125.679 85.7212 126.342 80.4427 125.102 77.7046L126.446 77.6235L126.44 77.6438Z" fill="#BD3193"/>
<path id="Vector_27" opacity="0.4" d="M126.44 77.6438L123.931 76.371C122.841 75.8234 121.509 76.371 120.805 76.7463L119.219 75.9705C117.321 74.9563 114.68 77.0708 114.091 77.5728L113.411 77.233C111.398 76.1682 107.735 79.023 107.735 79.023V68.3645L109.327 67.6901L106.795 66.4022C106.432 66.2607 106.034 66.2054 105.639 66.2419C105.244 66.2784 104.867 66.4053 104.546 66.6101C103.609 67.1464 102.829 67.8695 102.27 68.7206C101.711 69.5717 101.388 70.5268 101.327 71.5083V96.1363C99.0204 94.6151 96.5518 93.7024 94.4062 94.0421C92.697 94.3933 91.2015 95.2988 90.2188 96.5774C89.1576 98.2304 90.9109 99.2648 93.1719 101.536C95.4328 103.808 97.3939 106.506 99.4356 108.179C100.443 109.077 101.64 109.793 102.96 110.288V113.493L105.44 114.756L121.866 103.899V100.69C121.866 100.69 124.208 92.4652 124.958 89.0273C125.679 85.7212 126.342 80.4427 125.102 77.7046L126.446 77.6235L126.44 77.6438Z" fill="white"/>
<path id="Vector_28" d="M107.92 105.948L95.4962 99.6448L90.0572 96.8813C89.3651 98.3721 91.0435 99.4166 93.166 101.551C95.4097 103.808 97.388 106.521 99.4298 108.194C100.437 109.092 101.634 109.808 102.954 110.303V113.493L105.434 114.755L109.062 112.357C108.595 109.649 107.92 105.948 107.92 105.948Z" fill="#BD3193"/>
<path id="Vector_29" d="M103.813 72.7811L101.333 71.5186V97.3533L103.813 97.4091V72.7811Z" fill="#BD3193"/>
<path id="Vector_30" d="M123.302 79.3019L125.229 78.0545C125.183 77.943 125.148 77.8314 125.096 77.725L125.8 77.6844L124.254 77.6235L121.676 76.3711C121.375 76.4773 121.083 76.6045 120.805 76.7514L121.612 77.1621L123.302 79.3019Z" fill="#BD3193"/>
<path id="Vector_31" d="M116.479 78.9323L118.284 77.7255L115.793 76.397C115.191 76.7367 114.629 77.1273 114.114 77.5632L115.845 78.4455L116.479 78.9323Z" fill="#BD3193"/>
<path id="Vector_32" d="M112.707 78.8153L110.238 77.5476L110.25 77.5273V80.2705L113.122 79.3477L112.707 78.8153Z" fill="#BD3193"/>
<g id="Group" opacity="0.15">
<path id="Vector_33" d="M107.92 105.948L95.4962 99.6448L90.0572 96.8813C89.3651 98.3721 91.0435 99.4166 93.166 101.551C95.4097 103.808 97.388 106.521 99.4298 108.194C100.437 109.092 101.634 109.808 102.954 110.303V113.493L105.434 114.755L109.062 112.357C108.595 109.649 107.92 105.948 107.92 105.948Z" fill="black"/>
<path id="Vector_34" d="M103.813 72.7811L101.333 71.5186V97.3533L103.813 97.4091V72.7811Z" fill="black"/>
<path id="Vector_35" d="M123.302 79.3019L125.229 78.0545C125.183 77.943 125.148 77.8314 125.096 77.725L125.8 77.6844L124.254 77.6235L121.676 76.3711C121.375 76.4773 121.083 76.6045 120.805 76.7514L121.612 77.1621L123.302 79.3019Z" fill="black"/>
<path id="Vector_36" d="M116.479 78.9323L118.284 77.7255L115.793 76.397C115.191 76.7367 114.629 77.1273 114.114 77.5632L115.845 78.4455L116.479 78.9323Z" fill="black"/>
<path id="Vector_37" d="M112.707 78.8153L110.238 77.5476L110.25 77.5273V80.2705L113.122 79.3477L112.707 78.8153Z" fill="black"/>
</g>
<path id="Vector_38" d="M105.434 114.776V111.566C104.115 111.064 102.92 110.34 101.916 109.436C99.8739 107.763 97.8783 105.045 95.6519 102.794C93.4256 100.542 91.6145 99.4825 92.6989 97.8346C93.6816 96.556 95.177 95.6505 96.8862 95.2993C99.0434 94.9596 101.5 95.8875 103.807 97.3935V72.7807C103.867 71.7997 104.189 70.8449 104.747 69.9938C105.306 69.1427 106.084 68.4194 107.02 67.8825C108.797 66.9799 110.239 67.7101 110.239 69.5152V80.27C110.239 80.27 114.674 76.8118 116.462 78.9314C116.462 78.9314 120.822 74.9205 122.806 78.3077C122.806 78.3077 126.002 76.0411 127.421 78.6728C128.839 81.3044 128.17 86.8719 127.421 90.3098C126.671 93.7477 124.323 101.972 124.323 101.972V105.182L105.434 114.776Z" fill="#BD3193"/>
<path id="Vector_39" d="M110.25 84.8899C110.25 84.8899 110.654 79.9816 112.707 78.8052H112.632C111.782 79.2079 110.984 79.6889 110.25 80.2402V80.1489C110.242 80.1632 110.238 80.1787 110.238 80.1945C110.238 80.2103 110.242 80.2259 110.25 80.2402V84.8899Z" fill="#455A64"/>
<path id="Vector_40" d="M116.479 78.9318V83.4243C116.479 83.4243 117.056 78.805 118.21 77.6895C117.583 78.0465 117.002 78.4631 116.479 78.9318Z" fill="#455A64"/>
<path id="Vector_41" d="M122.801 78.3081V82.8159C122.801 82.8159 123.112 78.2777 124.225 77.6084C123.714 77.7792 123.234 78.015 122.801 78.3081Z" fill="#455A64"/>
<path id="Vector_42" d="M104.534 63.5174C104.13 63.7203 103.807 63.6036 103.807 63.2487V59.6993C103.829 59.4918 103.906 59.2917 104.032 59.1154C104.159 58.9391 104.331 58.7917 104.534 58.6852C104.932 58.4823 105.255 58.604 105.255 58.9539V62.5033C105.235 62.7105 105.159 62.9104 105.034 63.0867C104.908 63.263 104.737 63.4106 104.534 63.5174Z" fill="#EBEBEB"/>
<path id="Vector_43" d="M98.455 69.1406C98.1724 69.5666 97.7167 69.7998 97.4341 69.6477L95.0867 68.4561C94.804 68.3141 94.804 67.8476 95.0867 67.442C95.3693 67.011 95.8249 66.7777 96.1075 66.9349L98.455 68.1265C98.7607 68.2431 98.7607 68.7096 98.455 69.1406Z" fill="#EBEBEB"/>
<path id="Vector_44" d="M95.9692 76.5083V76.6097C95.9445 76.8301 95.8612 77.0422 95.7259 77.229C95.5906 77.4157 95.4072 77.5719 95.1905 77.6847L91.9837 79.3124C91.5569 79.5304 91.205 79.4036 91.205 79.0233V78.9219C91.231 78.7019 91.3149 78.4902 91.45 78.3036C91.5852 78.117 91.7679 77.9607 91.9837 77.8469L95.1905 76.2193C95.6231 76.0012 95.9692 76.128 95.9692 76.5083Z" fill="#EBEBEB"/>
<path id="Vector_45" d="M113.094 67.9184V67.817C113.117 67.5958 113.2 67.3826 113.336 67.1949C113.471 67.0072 113.655 66.8503 113.872 66.737L117.079 65.1093C117.506 64.8913 117.858 65.0231 117.858 65.3983V65.4997C117.832 65.7197 117.748 65.9314 117.613 66.118C117.477 66.3046 117.295 66.4609 117.079 66.5747L113.872 68.2024C113.451 68.4204 113.094 68.2936 113.094 67.9184Z" fill="#EBEBEB"/>
<path id="Vector_46" d="M110.567 62.9899C110.285 62.8479 110.285 62.3865 110.567 61.9758L112.915 58.4263C113.197 57.9953 113.653 57.7621 113.936 57.9193C114.218 58.0663 114.218 58.5278 113.936 58.9588L111.588 62.5082C111.329 62.9037 110.867 63.1369 110.567 62.9899Z" fill="#EBEBEB"/>
</g>
<g id="character-2">
<path id="Vector_47" d="M201.824 146.563V145.985C201.565 146.66 200.365 149.575 198.548 151.056C197.1 152.217 195.122 153.556 194.62 154.849C194.118 156.142 197.371 156.649 198.721 156.441C200.296 156.193 202.326 155.427 203.433 154.215C204.212 153.373 204.708 152.379 205.262 151.715C205.815 151.051 207.096 150.321 207.402 149.555C207.563 149.134 207.367 148.211 207.136 147.436C206.905 146.66 206.692 145.94 206.415 146.006V146.452C205.757 146.904 204.943 147.144 204.108 147.131C203.428 147.131 201.818 147.01 201.824 146.563Z" fill="#263238"/>
<path id="Vector_48" d="M197.233 152.055C197.683 151.705 198.139 151.36 198.548 151.041C199.817 150.027 200.786 148.292 201.345 147.111C201.661 146.437 201.824 145.715 201.824 144.986V142.689H206.438V146.432V146.533C206.219 147.37 204.131 149.575 202.914 151.056C202.112 152.03 200.607 153.267 198.767 153.485C196.997 153.688 196.114 153.206 197.233 152.055Z" fill="#FFA8A7"/>
<path id="Vector_49" d="M183.927 142.583V142.005C183.667 142.684 182.462 145.6 180.645 147.075C179.197 148.237 177.219 149.58 176.717 150.873C176.215 152.166 179.468 152.673 180.818 152.46C182.393 152.217 184.423 151.446 185.53 150.24C186.309 149.398 186.805 148.399 187.359 147.74C187.912 147.081 189.199 146.34 189.498 145.575C189.66 145.154 189.464 144.236 189.233 143.46C189.002 142.684 188.789 141.939 188.512 142.025V142.466C187.856 142.921 187.041 143.163 186.205 143.151C185.548 143.151 183.921 143.034 183.927 142.583Z" fill="#263238"/>
<path id="Vector_50" d="M179.336 148.08C179.78 147.725 180.236 147.385 180.645 147.066C181.914 146.052 182.883 144.312 183.442 143.131C183.761 142.459 183.926 141.739 183.927 141.012V138.709H188.512V142.452V142.553C188.293 143.395 186.205 145.621 184.988 147.076C184.186 148.05 182.681 149.292 180.841 149.505C179.094 149.708 178.211 149.231 179.336 148.08Z" fill="#FFA8A7"/>
<path id="Vector_51" d="M205.504 83.8555C209.063 90.6856 205.371 114.756 205.371 114.756C205.481 115.861 206.923 118.047 207.459 122.925C208.094 128.69 206.461 143.166 206.461 143.166C205.765 143.52 204.981 143.72 204.177 143.748C203.373 143.777 202.574 143.633 201.847 143.329C201.847 143.329 197.475 121.525 196.656 115.795C195.93 110.791 194.534 99.8025 194.534 99.8025L190.617 115.775C191.189 117.387 191.603 119.04 191.857 120.714C192.232 124.086 188.512 139.784 188.512 139.784C188.512 139.784 186.932 140.291 183.927 139.906C183.927 139.906 182.612 119.071 182.266 115.009C181.689 108.189 183.742 86.9029 185.15 82.8667L205.504 83.8555Z" fill="#37474F"/>
<path id="Vector_52" d="M194.534 99.8028L193.38 93.4544C193.38 93.4544 188.489 92.567 186.274 90.7314C187.801 92.3082 189.799 93.478 192.042 94.1085L193.34 98.9965L191.073 113.788L194.534 99.8028Z" fill="#263238"/>
<path id="Vector_53" d="M191.633 59.9324C190.516 59.8481 189.394 60.0152 188.372 60.418C187.35 60.8207 186.461 61.4459 185.79 62.2344C183.956 64.3438 176.925 72.3757 176.925 72.3757C176.925 72.3757 166.543 67.8121 166.053 67.2746C165.562 66.7371 165.834 65.6419 165.972 65.0435C166.11 64.4452 166.347 63.1015 166.497 62.7263C166.762 62.0722 165.66 62.2496 165.009 62.8632C164.357 63.4767 164.074 64.6734 163.746 64.8914C163.417 65.1095 160.96 62.6046 159.76 61.4028C158.56 60.2011 158.03 59.3746 157.205 59.8563C156.628 60.2113 156.997 60.9262 157.857 61.9555C158.257 62.3919 158.627 62.8491 158.964 63.3246C159.062 63.5071 158.751 63.6542 158.624 63.7556C158.393 63.9382 157.978 64.2627 157.949 64.5213C157.955 64.6774 157.943 64.8336 157.914 64.9878C157.805 65.3326 157.338 65.4948 157.188 65.8295C157.09 66.0678 157.188 66.3365 157.142 66.5952C157.107 66.7574 157.003 66.9045 156.969 67.0718C156.957 67.2347 156.985 67.3978 157.052 67.5501C157.119 67.7024 157.222 67.8402 157.355 67.9541C158.191 68.8364 159.339 69.171 160.441 69.7085C161.358 70.1547 162.304 70.3474 163.359 70.7581C164.415 71.1688 176.654 78.6328 178.592 77.6896C180.53 76.7465 190.531 66.5343 190.531 66.5343C193.415 62.3206 191.633 59.9324 191.633 59.9324Z" fill="#FFA8A7"/>
<path id="Vector_54" d="M199.229 60.1197C203.785 60.3986 204.108 62.3356 205.25 64.45C206.086 66.0836 206.163 67.9396 205.464 69.6221L202.274 77.7046C202.274 77.7046 203.762 80.8687 205.492 83.8553C197.516 87.7698 187.555 85.7111 185.155 82.8412C185.052 82.2327 185.669 77.4967 186.049 74.4037C184.642 71.3055 184.273 69.333 184.867 67.3048C185.969 63.5018 190.237 59.8003 192.129 59.9321L199.229 60.1197Z" fill="#F5F5F5"/>
<path id="Vector_55" d="M194.839 56.7987H196.61C197.836 56.7987 199.049 56.5863 200.182 56.1736C201.314 55.7609 202.343 55.156 203.209 54.3936C204.075 53.6312 204.762 52.7261 205.23 51.7302C205.698 50.7342 205.938 49.6669 205.936 48.5894C205.935 46.4036 204.946 44.3078 203.188 42.7627C201.429 41.2176 199.044 40.3496 196.558 40.3496H194.891C192.411 40.3563 190.034 41.2274 188.283 42.7719C186.531 44.3164 185.548 46.4084 185.548 48.5894C185.543 50.7608 186.519 52.8451 188.261 54.3843C190.003 55.9236 192.369 56.792 194.839 56.7987Z" fill="#263238"/>
<path id="Vector_56" d="M210.926 61.1188C209.465 61.1174 208.065 60.6068 207.032 59.699C206 58.7911 205.419 57.5602 205.417 56.2763V45.9019C206.141 45.9019 206.858 46.0273 207.527 46.2709C208.195 46.5146 208.803 46.8718 209.314 47.322C209.826 47.7722 210.231 48.3066 210.508 48.8947C210.784 49.4828 210.926 50.113 210.926 50.7494V61.1188Z" fill="#263238"/>
<path id="Vector_57" d="M206.427 44.0664L205.048 46.0135C205.189 46.0999 205.348 46.1603 205.516 46.191C205.684 46.2217 205.858 46.2222 206.026 46.1923C206.194 46.1624 206.354 46.1029 206.495 46.0173C206.636 45.9316 206.756 45.8217 206.848 45.6941C207.028 45.427 207.085 45.1092 207.007 44.8064C206.928 44.5035 206.721 44.2386 206.427 44.0664Z" fill="#263238"/>
<path id="Vector_58" d="M188.87 43.9902C187.791 44.548 186.459 46.9312 186.592 51.9308C186.701 56.1698 188.264 57.2144 189.049 57.5085C189.833 57.8026 191.356 57.6251 192.815 57.4071V59.9424C192.815 59.9424 190.785 62.0163 190.912 63.1825C191.039 64.3487 193.847 64.6226 195.751 63.4867C196.982 62.7045 198.04 61.7299 198.871 60.6117V54.4864C199.025 54.6531 199.215 54.7912 199.431 54.8926C199.646 54.994 199.882 55.0567 200.126 55.077C200.369 55.0973 200.614 55.0748 200.847 55.0108C201.081 54.9469 201.297 54.8427 201.484 54.7044C203.11 53.7562 203.174 51.4085 202.228 50.5668C201.282 49.7251 199.246 49.9938 198.871 51.155C198.871 51.155 196.524 51.2311 193.403 49.7251C192.188 49.1498 191.144 48.3307 190.356 47.3343C189.569 46.3378 189.06 45.1922 188.87 43.9902Z" fill="#FFA8A7"/>
<path id="Vector_59" d="M192.509 50.8661C192.504 50.971 192.534 51.075 192.595 51.165C192.657 51.255 192.747 51.3269 192.855 51.3718C192.963 51.4167 193.084 51.4326 193.202 51.4173C193.32 51.402 193.431 51.3564 193.52 51.2861C193.608 51.2158 193.672 51.124 193.701 51.0222C193.731 50.9205 193.725 50.8133 193.686 50.7142C193.646 50.6151 193.574 50.5285 193.479 50.4653C193.383 50.4021 193.269 50.3651 193.15 50.359C192.989 50.356 192.834 50.4067 192.715 50.501C192.596 50.5952 192.522 50.7258 192.509 50.8661Z" fill="#263238"/>
<path id="Vector_60" d="M191.811 54.4609L190.404 54.8514C190.429 54.934 190.473 55.0113 190.533 55.0787C190.593 55.1462 190.667 55.2023 190.752 55.244C190.837 55.2856 190.931 55.3118 191.028 55.321C191.124 55.3302 191.222 55.3222 191.315 55.2976C191.505 55.2417 191.663 55.1233 191.755 54.9673C191.848 54.8112 191.868 54.6297 191.811 54.4609Z" fill="#F28F8F"/>
<path id="Vector_61" d="M187.543 49.2333L188.766 48.4828C188.715 48.4106 188.647 48.3483 188.568 48.2998C188.488 48.2512 188.398 48.2173 188.303 48.2003C188.208 48.1832 188.11 48.1832 188.015 48.2004C187.92 48.2176 187.83 48.2516 187.751 48.3003C187.587 48.4027 187.474 48.5567 187.435 48.7303C187.396 48.904 187.435 49.0841 187.543 49.2333Z" fill="#263238"/>
<path id="Vector_62" d="M187.855 50.4806C187.848 50.552 187.858 50.6238 187.884 50.6918C187.91 50.7598 187.951 50.8225 188.005 50.8764C188.058 50.9302 188.124 50.9741 188.197 51.0054C188.27 51.0367 188.35 51.0548 188.431 51.0586C188.556 51.0676 188.681 51.0436 188.79 50.9897C188.9 50.9358 188.988 50.8545 189.044 50.7562C189.101 50.6578 189.122 50.547 189.106 50.4378C189.09 50.3286 189.038 50.2261 188.955 50.1433C188.873 50.0606 188.764 50.0014 188.643 49.9733C188.522 49.9453 188.394 49.9496 188.276 49.9859C188.157 50.0221 188.054 50.0886 187.979 50.1767C187.904 50.2648 187.861 50.3707 187.855 50.4806Z" fill="#263238"/>
<path id="Vector_63" d="M190.785 50.1768L190.687 53.3865L188.766 52.8642L190.785 50.1768Z" fill="#F28F8F"/>
<path id="Vector_64" d="M192.815 57.4172C194.366 57.2398 197.556 56.4335 198.052 55.3281C197.851 55.8887 197.461 56.3822 196.933 56.7428C195.981 57.4578 192.815 58.264 192.815 58.264V57.4172Z" fill="#F28F8F"/>
<path id="Vector_65" opacity="0.1" d="M197.187 84.616C197.812 84.4894 198.402 84.2544 198.922 83.9247C199.443 83.595 199.883 83.1772 200.217 82.6959C200.551 82.2146 200.773 81.6795 200.868 81.1219C200.964 80.5644 200.932 79.9956 200.774 79.449C200.682 79.1157 200.464 78.8197 200.156 78.6089C199.849 78.3981 199.469 78.285 199.079 78.2879C199.591 77.9897 200.03 77.6054 200.373 77.1573C200.715 76.7091 200.954 76.2059 201.074 75.6765L202.043 70.6059C202.16 69.78 202.076 68.9415 201.795 68.1466L205.002 64.8862L205.579 65.2462C206.066 66.6784 206.02 68.2099 205.446 69.6171L202.274 77.7047C202.274 77.7047 203.762 80.8688 205.492 83.8554C202.899 85.0853 200.036 85.8122 197.096 85.9871C194.156 86.162 191.207 85.7809 188.449 84.8695C191.354 85.2698 194.318 85.1838 197.187 84.616Z" fill="black"/>
<path id="Vector_66" d="M213.665 80.2454C209.524 65.3631 206.461 60.399 201.432 60.47C199.961 61.9912 200.371 66.6764 202.689 69.5058C202.689 69.5058 207.88 79.1045 208.693 82.517C209.414 85.5137 210.239 89.2863 210.187 91.8621C210.171 92.3192 209.966 92.7554 209.61 93.0892C208.665 93.9918 208.665 94.7169 208.047 95.7107C207.569 96.4916 207.044 96.7857 207.194 96.9581C207.392 97.1436 207.662 97.2569 207.95 97.2757C208.238 97.2945 208.524 97.2173 208.751 97.0595C209.187 96.77 209.575 96.4287 209.905 96.0454C209.742 97.0004 209.427 97.9306 208.97 98.8089C207.909 100.913 208.169 101.988 211.398 101.238C213.423 100.766 214.698 99.2855 215.003 95.0009C215.15 93.4253 215.167 91.8426 215.055 90.2649C214.646 86.2084 214.334 82.6387 213.665 80.2454Z" fill="#FFA8A7"/>
</g>
<g id="character-1">
<path id="Vector_67" d="M172.576 122.793C173.02 108.306 171.699 104.837 167.316 102.186L165.614 110.577C165.614 110.577 167.61 120.465 167.397 123.761C167.212 126.656 166.889 130.277 166.11 132.614C165.973 133.036 165.663 133.397 165.239 133.628C164.12 134.242 163.671 134.871 162.829 135.657C162.171 136.265 161.612 136.412 161.675 136.605C161.802 136.818 162.016 136.98 162.273 137.061C162.531 137.142 162.813 137.135 163.065 137.041C163.623 136.843 164.153 136.59 164.645 136.285C164.259 137.173 163.711 138 163.025 138.735C161.456 140.423 161.387 141.462 164.553 141.488C166.531 141.488 168.112 140.428 169.606 136.59C170.185 135.182 170.649 133.74 170.996 132.275C171.78 128.446 172.507 125.125 172.576 122.793Z" fill="#B16668"/>
<path id="Vector_68" d="M163.63 101.085C165.724 100.816 168.567 101.202 170.407 104.092C172.247 106.982 172.714 111.956 172.905 116.9C172.905 116.9 169.254 119.583 164.87 118.264L163.63 101.085Z" fill="#BD3193"/>
<path id="Vector_69" opacity="0.1" d="M163.63 101.085C165.724 100.816 168.567 101.202 170.407 104.092C172.247 106.982 172.714 111.956 172.905 116.9C172.905 116.9 169.254 119.583 164.87 118.264L163.63 101.085Z" fill="black"/>
<path id="Vector_70" d="M169.784 180.75C170.113 180.861 170.2 181.419 170.252 182.525C170.286 183.361 170.494 184.827 169.375 185.116C168.256 185.405 166.624 185.258 165.914 184.472C165.02 183.458 164.42 182.616 163.146 181.429C162.038 180.385 160.839 179.401 160.4 177.951C159.997 176.627 160.331 176.055 161.358 175.669C162.765 175.162 164.986 176.871 166.087 177.14C167.033 177.383 169.45 180.638 169.784 180.75Z" fill="#263238"/>
<path id="Vector_71" d="M169.784 179.726V181.085C169.204 181.411 168.533 181.592 167.844 181.608C167.155 181.624 166.474 181.475 165.874 181.176C165.81 181.044 165.47 179.234 165.47 179.234L169.784 179.726Z" fill="#B16668"/>
<path id="Vector_72" d="M157.286 188.584C157.555 189.312 157.783 190.052 157.966 190.8C158.157 191.621 158.428 192.995 158.105 193.614C157.782 194.233 156.501 194.628 154.517 194.628C153.237 194.628 151.241 195.384 149.874 196.053C148.507 196.722 145.52 197.021 144.026 196.869C142.267 196.687 140.444 195.789 140.156 195.145C139.867 194.501 140.248 193.842 144.401 192.286C144.441 192.286 150.168 190.633 152.176 188.685L157.286 188.584Z" fill="#263238"/>
<path id="Vector_73" d="M157.286 187.114C157.286 187.114 157.286 188.128 157.286 188.701C157.286 189.274 156.519 190.136 154.512 190.07C153.104 190.029 152.124 189.695 152.204 188.676V187.205L157.286 187.114Z" fill="#B16668"/>
<path id="Vector_74" d="M170.788 161.689C170.446 159.276 169.835 156.899 168.965 154.591C168.965 154.591 169.513 148.506 169.779 142.695C170.067 136.438 169.779 128.578 169.9 127.017C169.9 127.017 146.944 122.96 146.535 130.16C146.125 137.361 147.44 155.797 147.688 158.972C147.936 162.146 148.582 164.96 149.332 170.127C150.082 175.294 152.129 187.205 152.129 187.205C152.924 187.56 153.806 187.738 154.698 187.722C155.589 187.706 156.462 187.497 157.24 187.113C157.24 187.113 158.855 172.657 158.687 168.991C158.557 166.277 158.026 163.589 157.107 160.995C157.107 160.995 157.54 155.032 157.926 149.839C158.312 144.647 158.716 142.162 158.803 139.911L159.299 139.693C159.299 139.693 159.801 148.638 160.072 151.817C160.343 154.996 160.919 158.039 161.963 163.936C162.875 169.057 165.574 179.883 165.574 179.883C168.193 181.13 169.761 179.72 169.761 179.72C169.761 179.72 171.497 166.131 170.788 161.689Z" fill="#37474F"/>
<path id="Vector_75" d="M158.826 139.916C158.826 139.916 164.397 137.502 167.183 135.327C167.183 135.327 164.594 138.532 161.196 139.952C161.196 139.952 159.991 151.066 159.997 150.843L159.299 139.896L158.826 139.916Z" fill="#263238"/>
<path id="Vector_76" d="M153.871 98.7933L155.232 105.365L161.981 104.934L160.568 97.48L153.871 98.7933Z" fill="#B16668"/>
<path id="Vector_77" d="M169.115 104.452C168.446 102.667 165.868 100.72 163.29 101.141C159.456 101.714 155.676 102.543 151.985 103.621C149.62 104.366 147.469 106.156 147.273 112.991C147.273 112.991 146.483 128.923 146.471 132.001C152.401 134.065 158.584 134.004 161.981 133.35C169.087 131.986 169.94 129.394 169.94 129.394C169.94 129.394 170.032 117.94 169.819 112.991C169.64 108.788 169.577 105.679 169.115 104.452Z" fill="#BD3193"/>
<path id="Vector_78" d="M148.663 90.7969C148.663 90.7969 146.933 93.2003 147.158 93.4285C147.383 93.6567 148.675 93.8392 148.675 93.8392L148.663 90.7969Z" fill="#B16668"/>
<path id="Vector_79" d="M153.416 84.1595C149.845 84.8947 148.848 86.2993 148.634 91.3192C148.415 96.5622 149.067 98.195 149.868 98.8846C150.405 99.3511 153.329 99.3916 154.817 98.991C156.657 98.484 160.816 97.1149 162.707 94.4275C164.934 91.2837 165.436 87.0751 162.921 85.3967C159.379 83.0693 154.869 83.8553 153.416 84.1595Z" fill="#B16668"/>
<path id="Vector_80" d="M153.946 99.1533C155.158 98.2963 155.048 97.7437 155.048 97.7437C154.183 98.4586 150.964 99.0671 149.857 98.8845C150.313 99.2953 152.406 99.3561 153.946 99.1533Z" fill="#9A4A4D"/>
<path id="Vector_81" d="M148.675 85.4629C149.724 87.0399 151.997 87.7954 151.997 87.7954C152.683 88.4799 152.302 91.1572 153.508 91.5781C153.508 91.5781 154.027 89.631 155.89 89.8389C157.753 90.0468 158.07 92.1358 156.922 93.4288C155.775 94.7219 154.673 94.2604 154.673 94.2604C154.673 94.2604 154.8 97.0239 156.236 98.5654C156.236 98.5654 157.834 98.9862 160.735 98.3778C162.523 98.0076 165.009 95.9844 166.018 93.8801C168.164 89.418 168.216 85.4426 164.98 84.317C164.582 82.2887 162.736 81.4115 160.648 81.0312C156.155 80.2199 153.26 82.6842 149.799 82.4713C147.815 82.3496 147.446 83.6122 148.675 85.4629Z" fill="#263238"/>
<path id="Vector_82" d="M165.055 84.9962L167.172 83.8401C166.997 83.5933 166.718 83.4176 166.397 83.3515C166.075 83.2854 165.736 83.3344 165.456 83.4877C165.175 83.641 164.975 83.8861 164.9 84.169C164.825 84.4519 164.88 84.7494 165.055 84.9962Z" fill="#263238"/>
<path id="Vector_83" d="M152.17 103.596C152.17 103.596 148.813 104.143 147.06 106.476C145.306 108.808 137.716 117.175 137.716 117.175C137.716 117.175 126.803 112.373 126.267 111.8C125.731 111.227 126.03 110.081 126.18 109.447C126.33 108.813 126.573 107.419 126.757 107.013C127.034 106.319 125.875 106.506 125.188 107.15C124.502 107.794 124.202 109.057 123.862 109.275C123.522 109.493 120.92 106.866 119.663 105.599C118.406 104.331 117.811 103.444 116.964 103.966C116.358 104.346 116.75 105.097 117.65 106.182C118.073 106.637 118.459 107.118 118.804 107.622C118.913 107.814 118.579 107.972 118.452 108.073C118.204 108.266 117.771 108.58 117.736 108.884C117.755 109.053 117.755 109.223 117.736 109.391C117.615 109.751 117.108 109.898 116.964 110.274C116.86 110.532 116.964 110.816 116.917 111.085C116.877 111.257 116.773 111.41 116.733 111.592C116.722 111.764 116.752 111.937 116.823 112.097C116.894 112.258 117.003 112.404 117.142 112.525C118.025 113.453 119.236 113.808 120.395 114.371C121.359 114.842 122.356 115.045 123.47 115.481C124.583 115.917 137.664 124.416 139.706 123.427C141.748 122.438 152.21 111.688 152.21 111.688C153.094 110.48 153.561 109.073 153.554 107.637C153.546 106.2 153.066 104.797 152.17 103.596Z" fill="#B16668"/>
<path id="Vector_84" d="M153.341 103.25C151.899 103.392 149.88 103.159 147.048 105.826C144.775 108.115 142.656 110.519 140.704 113.027C141.076 114.344 141.872 115.539 142.998 116.468C144.123 117.397 145.529 118.021 147.048 118.265C147.048 118.265 151.997 113.807 153.393 111.348C154.788 108.889 155.036 104.904 153.341 103.25Z" fill="#BD3193"/>
<path id="Vector_85" opacity="0.1" d="M153.341 103.25C151.899 103.392 149.88 103.159 147.048 105.826C144.775 108.115 142.656 110.519 140.704 113.027C141.076 114.344 141.872 115.539 142.998 116.468C144.123 117.397 145.529 118.021 147.048 118.265C147.048 118.265 151.997 113.807 153.393 111.348C154.788 108.889 155.036 104.904 153.341 103.25Z" fill="black"/>
</g>
</g>
</svg>
