<svg width="25" height="24" viewBox="0 0 25 24" fill="none" xmlns="http://www.w3.org/2000/svg">
<g id="ph:arrow-right-light">
<path id="Vector" d="M21.1475 12.3974L14.3975 19.1474C14.2909 19.2467 14.1498 19.3008 14.0041 19.2983C13.8584 19.2957 13.7193 19.2367 13.6163 19.1336C13.5132 19.0305 13.4542 18.8915 13.4516 18.7458C13.449 18.6001 13.5031 18.459 13.6025 18.3524L19.3916 12.5624H4.25C4.10082 12.5624 3.95774 12.5031 3.85225 12.3976C3.74676 12.2921 3.6875 12.1491 3.6875 11.9999C3.6875 11.8507 3.74676 11.7076 3.85225 11.6021C3.95774 11.4966 4.10082 11.4374 4.25 11.4374H19.3916L13.6025 5.64739C13.5031 5.54075 13.449 5.39972 13.4516 5.25399C13.4542 5.10827 13.5132 4.96923 13.6163 4.86617C13.7193 4.76311 13.8584 4.70407 14.0041 4.7015C14.1498 4.69893 14.2909 4.75302 14.3975 4.85238L21.1475 11.6024C21.2528 11.7079 21.312 11.8508 21.312 11.9999C21.312 12.1489 21.2528 12.2919 21.1475 12.3974Z" fill="white"/>
</g>
</svg>
