<svg width="71" height="71" viewBox="0 0 71 71" fill="none" xmlns="http://www.w3.org/2000/svg">
<g id="ph:crown-fill" clip-path="url(#clip0_161_6838)">
<path id="Vector" d="M46.6354 13.144C46.1665 13.1245 45.7023 13.2449 45.3019 13.4898C44.9016 13.7347 44.583 14.093 44.3866 14.5193L39.7718 24.4983L24.8242 18.9875C24.4403 18.8463 24.0265 18.8067 23.6229 18.8725C23.2192 18.9383 22.8394 19.1073 22.5202 19.3631C22.2011 19.6189 21.9535 19.9528 21.8014 20.3325C21.6492 20.7121 21.5978 21.1246 21.652 21.53L23.7801 37.3235L13.0388 39.6526C12.5819 39.7522 12.1646 39.9846 11.8393 40.3205C11.514 40.6564 11.2952 41.0809 11.2103 41.5408C11.1254 42.0006 11.1781 42.4753 11.362 42.9052C11.5459 43.3351 11.8526 43.7012 12.2438 43.9574L31.7998 56.7599C31.9963 56.8885 32.2192 56.9713 32.452 57.0022C32.6848 57.0331 32.9216 57.0113 33.1448 56.9385C33.3681 56.8656 33.5721 56.7436 33.7419 56.5813C33.9116 56.4191 34.0428 56.2208 34.1257 56.001C34.1455 55.9474 36.2507 50.5598 43.115 45.058C49.9794 39.5561 55.6961 38.6744 55.7484 38.6676C55.9817 38.6354 56.2047 38.5511 56.401 38.4209C56.5972 38.2907 56.7616 38.118 56.8819 37.9156C57.0023 37.7132 57.0755 37.4863 57.0962 37.2517C57.1168 37.0171 57.0844 36.7809 57.0013 36.5606L48.7671 14.691C48.6054 14.2507 48.3163 13.8685 47.9367 13.5931C47.5571 13.3176 47.1041 13.1612 46.6354 13.144ZM46.1169 33.8094C46.2938 34.1325 46.3514 34.5075 46.2795 34.8688C46.2075 35.2301 46.0107 35.5545 45.7235 35.7852C45.6517 35.8426 45.5751 35.8939 45.4947 35.9384C41.0486 38.4001 37.0545 41.6014 33.6839 45.4049C33.548 45.5597 33.383 45.6862 33.1982 45.7772C33.0134 45.8682 32.8125 45.9219 32.607 45.9352C32.1919 45.9622 31.7831 45.8232 31.4705 45.5487C31.1579 45.2742 30.9671 44.8869 30.9402 44.4717C30.9132 44.0566 31.0523 43.6478 31.3267 43.3352C34.9394 39.2573 39.2212 35.8254 43.9879 33.1872C44.1685 33.087 44.3671 33.0236 44.5723 33.0004C44.7775 32.9772 44.9853 32.9948 45.1837 33.0522C45.3821 33.1096 45.5672 33.2056 45.7284 33.3346C45.8896 33.4637 46.0237 33.6234 46.123 33.8045L46.1169 33.8094Z" fill="#FFBE00"/>
</g>
<defs>
<clipPath id="clip0_161_6838">
<rect width="50.1799" height="50.1799" fill="white" transform="translate(0 31.3833) rotate(-38.7127)"/>
</clipPath>
</defs>
</svg>
