<svg width="71" height="71" viewBox="0 0 71 71" fill="none" xmlns="http://www.w3.org/2000/svg">
<g id="ph:crown-fill" clip-path="url(#clip0_162_6903)">
<path id="Vector" d="M24.3646 57.8562C24.8335 57.8756 25.2977 57.7552 25.6981 57.5103C26.0984 57.2655 26.417 56.9071 26.6134 56.4808L31.2282 46.5018L46.1758 52.0126C46.5597 52.1538 46.9735 52.1934 47.3771 52.1276C47.7808 52.0618 48.1606 51.8928 48.4798 51.637C48.7989 51.3812 49.0465 51.0473 49.1986 50.6676C49.3508 50.288 49.4022 49.8755 49.348 49.4701L47.2199 33.6766L57.9612 31.3475C58.4181 31.2479 58.8354 31.0155 59.1607 30.6796C59.486 30.3437 59.7048 29.9192 59.7897 29.4594C59.8746 28.9995 59.8219 28.5249 59.638 28.0949C59.4541 27.665 59.1474 27.2989 58.7562 27.0427L39.2002 14.2402C39.0037 14.1116 38.7808 14.0288 38.548 13.9979C38.3152 13.967 38.0784 13.9888 37.8552 14.0616C37.6319 14.1345 37.4279 14.2565 37.2581 14.4188C37.0884 14.581 36.9572 14.7794 36.8743 14.9991C36.8545 15.0527 34.7493 20.4403 27.885 25.9422C21.0206 31.4441 15.3039 32.3258 15.2516 32.3326C15.0183 32.3647 14.7953 32.449 14.599 32.5792C14.4028 32.7094 14.2384 32.8821 14.1181 33.0845C13.9977 33.2869 13.9245 33.5138 13.9038 33.7484C13.8832 33.983 13.9156 34.2192 13.9987 34.4395L22.2329 56.3091C22.3946 56.7494 22.6837 57.1316 23.0633 57.4071C23.4429 57.6825 23.8959 57.8389 24.3646 57.8562ZM24.8831 37.1907C24.7062 36.8677 24.6486 36.4926 24.7205 36.1313C24.7925 35.7701 24.9893 35.4456 25.2765 35.215C25.3483 35.1575 25.4249 35.1063 25.5053 35.0617C29.9514 32.6 33.9455 29.3987 37.3161 25.5952C37.452 25.4404 37.617 25.3139 37.8018 25.2229C37.9866 25.1319 38.1875 25.0782 38.393 25.0649C38.8081 25.0379 39.2169 25.177 39.5295 25.4514C39.8421 25.7259 40.0329 26.1133 40.0598 26.5284C40.0868 26.9435 39.9477 27.3523 39.6733 27.6649C36.0606 31.7428 31.7788 35.1747 27.0121 37.813C26.8315 37.9131 26.6329 37.9766 26.4277 37.9997C26.2225 38.0229 26.0147 38.0053 25.8163 37.9479C25.6179 37.8906 25.4328 37.7946 25.2716 37.6655C25.1104 37.5364 24.9763 37.3767 24.877 37.1956L24.8831 37.1907Z" fill="#FFBE00"/>
</g>
<defs>
<clipPath id="clip0_162_6903">
<rect width="50.1799" height="50.1799" fill="white" transform="translate(71 39.6167) rotate(141.287)"/>
</clipPath>
</defs>
</svg>
