<svg width="66" height="66" viewBox="0 0 66 66" fill="none" xmlns="http://www.w3.org/2000/svg">
<g id="ph:crown-fill" clip-path="url(#clip0_162_6887)">
<path id="Vector" d="M8.27978 33.71C8.48636 34.1314 8.81352 34.482 9.21972 34.7171C9.62592 34.9522 10.0928 35.0613 10.5611 35.0305L21.5331 34.3271L23.8187 50.0935C23.8777 50.4982 24.0402 50.8808 24.2906 51.2042C24.541 51.5276 24.8707 51.7808 25.2477 51.9393C25.6247 52.0978 26.0363 52.1562 26.4426 52.1088C26.8488 52.0615 27.2359 51.9099 27.5664 51.6689L40.4327 42.2658L47.6029 50.5958C47.9084 50.9498 48.3116 51.2058 48.762 51.3315C49.2124 51.4572 49.6899 51.4471 50.1346 51.3024C50.5793 51.1577 50.9713 50.8849 51.2615 50.5182C51.5517 50.1516 51.7271 49.7074 51.7658 49.2414L53.691 25.9468C53.7103 25.7128 53.6768 25.4774 53.5929 25.258C53.509 25.0387 53.377 24.841 53.2065 24.6795C53.036 24.518 52.8314 24.3969 52.6078 24.3251C52.3842 24.2532 52.1473 24.2325 51.9147 24.2645C51.8581 24.2726 46.1187 24.992 38.009 21.5828C29.8993 18.1736 26.3977 13.5696 26.3668 13.5268C26.2273 13.3371 26.0468 13.1813 25.8388 13.0709C25.6308 12.9605 25.4006 12.8984 25.1653 12.8892C24.9299 12.8799 24.6956 12.9238 24.4795 13.0175C24.2635 13.1112 24.0714 13.2524 23.9174 13.4306L8.62276 31.0985C8.31297 31.4507 8.11493 31.887 8.05385 32.3521C7.99278 32.8171 8.07142 33.2898 8.27978 33.71ZM26.6905 24.3094C26.8901 23.9997 27.1923 23.7703 27.5442 23.6612C27.896 23.5521 28.275 23.5704 28.6147 23.7128C28.6995 23.7485 28.7811 23.7913 28.8586 23.8408C33.1428 26.5745 37.8615 28.5582 42.8121 29.7066C43.013 29.7522 43.2029 29.8369 43.371 29.9559C43.5391 30.075 43.6821 30.2259 43.7919 30.4002C44.0136 30.7522 44.0863 31.1778 43.9942 31.5835C43.9021 31.9891 43.6525 32.3415 43.3006 32.5632C42.9486 32.7849 42.5229 32.8577 42.1173 32.7655C36.81 31.5352 31.7514 29.4087 27.1591 26.4774C26.9849 26.3664 26.8344 26.2221 26.7162 26.0528C26.598 25.8835 26.5143 25.6925 26.4701 25.4907C26.4259 25.289 26.422 25.0805 26.4586 24.8773C26.4952 24.674 26.5715 24.48 26.6833 24.3063L26.6905 24.3094Z" fill="#FFBE00"/>
</g>
<defs>
<clipPath id="clip0_162_6887">
<rect width="50.1799" height="50.1799" fill="white" transform="translate(46.5537 66) rotate(-157.199)"/>
</clipPath>
</defs>
</svg>
