<svg width="66" height="66" viewBox="0 0 66 66" fill="none" xmlns="http://www.w3.org/2000/svg">
<g id="ph:crown-fill" clip-path="url(#clip0_161_6854)">
<path id="Vector" d="M57.7202 32.29C57.5136 31.8686 57.1865 31.518 56.7803 31.2829C56.3741 31.0478 55.9072 30.9387 55.4389 30.9695L44.4669 31.6729L42.1813 15.9065C42.1223 15.5018 41.9598 15.1192 41.7094 14.7958C41.459 14.4724 41.1293 14.2192 40.7523 14.0607C40.3753 13.9022 39.9637 13.8438 39.5574 13.8912C39.1512 13.9385 38.7641 14.0901 38.4336 14.3311L25.5673 23.7342L18.3971 15.4042C18.0916 15.0502 17.6884 14.7942 17.238 14.6685C16.7876 14.5428 16.3101 14.5529 15.8654 14.6976C15.4207 14.8423 15.0287 15.1151 14.7385 15.4818C14.4483 15.8484 14.2729 16.2926 14.2342 16.7586L12.309 40.0532C12.2897 40.2872 12.3232 40.5226 12.4071 40.742C12.491 40.9613 12.623 41.159 12.7935 41.3205C12.964 41.482 13.1686 41.6031 13.3922 41.6749C13.6158 41.7468 13.8527 41.7675 14.0853 41.7355C14.1419 41.7274 19.8813 41.008 27.991 44.4172C36.1007 47.8264 39.6023 52.4304 39.6332 52.4732C39.7727 52.6629 39.9532 52.8187 40.1612 52.9291C40.3692 53.0395 40.5994 53.1016 40.8347 53.1108C41.0701 53.1201 41.3044 53.0762 41.5205 52.9825C41.7365 52.8888 41.9286 52.7476 42.0826 52.5694L57.3772 34.9015C57.687 34.5493 57.8851 34.113 57.9461 33.6479C58.0072 33.1829 57.9286 32.7102 57.7202 32.29ZM39.3095 41.6906C39.1099 42.0003 38.8077 42.2297 38.4558 42.3388C38.104 42.4479 37.725 42.4296 37.3853 42.2872C37.3005 42.2515 37.2189 42.2087 37.1414 42.1592C32.8572 39.4255 28.1385 37.4418 23.1879 36.2934C22.987 36.2478 22.7971 36.1631 22.629 36.0441C22.4609 35.925 22.3179 35.7741 22.2081 35.5998C21.9864 35.2478 21.9137 34.8222 22.0058 34.4165C22.0979 34.0109 22.3475 33.6585 22.6994 33.4368C23.0514 33.2151 23.4771 33.1423 23.8827 33.2345C29.19 34.4648 34.2486 36.5913 38.8409 39.5226C39.0151 39.6336 39.1656 39.7779 39.2838 39.9472C39.402 40.1165 39.4857 40.3075 39.5299 40.5093C39.5741 40.711 39.578 40.9195 39.5414 41.1227C39.5048 41.326 39.4285 41.52 39.3167 41.6937L39.3095 41.6906Z" fill="#FFBE00"/>
</g>
<defs>
<clipPath id="clip0_161_6854">
<rect width="50.1799" height="50.1799" fill="white" transform="translate(19.4463) rotate(22.8009)"/>
</clipPath>
</defs>
</svg>
