<svg width="75" height="99" viewBox="0 0 75 99" fill="none" xmlns="http://www.w3.org/2000/svg">
<g id="Flaming Disc">
<g id="Lines">
<line id="Line 3" y1="-0.5" x2="27.9986" y2="-0.5" transform="matrix(-0.634609 -0.772848 0.772772 -0.634666 43.2993 35.5731)" stroke="#BD3193"/>
<line id="Line 4" y1="-0.5" x2="27.9975" y2="-0.5" transform="matrix(-0.949311 -0.314351 0.314295 -0.949321 35.5468 42.8757)" stroke="#BD3193"/>
<line id="Line 2" y1="-0.5" x2="28" y2="-0.5" transform="matrix(-0.107078 -0.994256 0.994244 -0.107096 54.1118 32.7355)" stroke="#BD3193"/>
<line id="Line 1" y1="-0.5" x2="28.3841" y2="-0.5" transform="matrix(0.312706 -0.949846 0.949836 0.312761 65.7175 35.8884)" stroke="#BD3193"/>
<line id="Line 5" y1="-0.5" x2="27.9976" y2="-0.5" transform="matrix(-0.993094 0.117274 -0.117254 -0.993107 31.9223 53.3237)" stroke="#BD3193"/>
<line id="Line 6" y1="-0.5" x2="28.9052" y2="-0.5" transform="matrix(-0.891678 0.452647 -0.452589 -0.891731 34.3571 65.3843)" stroke="#BD3193"/>
<line id="Line 7" y1="-0.5" x2="27.72" y2="-0.5" transform="matrix(-0.714331 0.699792 -0.699741 -0.714412 41.5679 73.5837)" stroke="#BD3193"/>
</g>
</g>
</svg>
