<svg width="72" height="72" viewBox="0 0 72 72" fill="none" xmlns="http://www.w3.org/2000/svg">
<g id="raphael:quote">
<path id="Vector" d="M32.6363 13.2143C23.778 18.8843 19.35 25.7176 19.35 33.7051C19.35 36.1913 19.7843 37.4333 20.6483 37.4333L21.5393 37.1926C22.2413 36.9226 22.806 36.7876 23.2403 36.7876C25.776 36.7876 27.8978 37.7101 29.5965 39.5551C31.2975 41.4001 32.148 43.6726 32.148 46.3861C32.148 48.9893 31.2255 51.2011 29.3918 53.0168C27.5558 54.8326 25.3418 55.7393 22.7498 55.7393C19.1318 55.7393 16.146 54.2543 13.7948 51.2776C11.448 48.3076 10.2758 44.5726 10.2758 40.0793C10.2758 34.9943 11.2703 30.3436 13.2683 26.1226C15.2708 21.9038 18.3173 18.0901 22.4213 14.6813C26.5253 11.2748 29.1443 9.56934 30.2783 9.56934C31.0343 9.56934 31.6553 9.93384 32.1413 10.6628C32.6273 11.3896 32.8703 12.0241 32.8703 12.5641L32.6295 13.2121L32.6363 13.2143ZM61.7963 13.2143C52.938 18.8843 48.5123 25.7153 48.5123 33.7073C48.5123 36.1936 48.9465 37.4356 49.8105 37.4356L50.7015 37.1948C51.4035 36.9248 51.9683 36.7898 52.4025 36.7898C54.8843 36.7898 56.9925 37.7123 58.7183 39.5573C60.4508 41.4023 61.3103 43.6748 61.3103 46.3883C61.3103 48.9916 60.3878 51.2033 58.554 53.0191C56.718 54.8348 54.504 55.7416 51.912 55.7416C48.294 55.7416 45.3083 54.2566 42.957 51.2798C40.6103 48.3098 39.438 44.5748 39.438 40.0816C39.438 34.9426 40.446 30.2491 42.4755 26.0056C44.5005 21.7598 47.5493 17.9573 51.6263 14.6048C55.71 11.2501 58.3133 9.57159 59.445 9.57159C60.2033 9.57159 60.8243 9.93609 61.3125 10.6651C61.7963 11.3941 62.0393 12.0286 62.0393 12.5686L61.7963 13.2143Z" fill="#130828"/>
</g>
</svg>
