<svg width="89" height="106" viewBox="0 0 89 106" fill="none" xmlns="http://www.w3.org/2000/svg">
<g id="Flaming Disc">
<g id="Lines">
<line id="Line 3" y1="-0.5" x2="27.9987" y2="-0.5" transform="matrix(0.48855 0.872503 -0.872591 0.488512 35.8422 65.1426)" stroke="#BD3193"/>
<line id="Line 4" y1="-0.5" x2="28" y2="-0.5" transform="matrix(0.879085 0.476642 -0.476725 0.879065 44.7609 59.3209)" stroke="#BD3193"/>
<line id="Line 2" y1="-0.5" x2="27.9978" y2="-0.5" transform="matrix(-0.069794 0.997549 -0.997576 -0.0697759 24.6979 66.0303)" stroke="#BD3193"/>
<line id="Line 1" y1="-0.5" x2="28.3818" y2="-0.5" transform="matrix(-0.475252 0.879862 -0.879881 -0.47517 13.8283 60.882)" stroke="#BD3193"/>
<line id="Line 5" y1="-0.5" x2="28" y2="-0.5" transform="matrix(0.998238 0.0595565 -0.0595729 0.99821 50.1701 49.676)" stroke="#BD3193"/>
<line id="Line 6" y1="-0.5" x2="28.9071" y2="-0.5" transform="matrix(0.95754 -0.288394 0.288422 0.957475 49.8984 37.3762)" stroke="#BD3193"/>
<line id="Line 7" y1="-0.5" x2="27.7195" y2="-0.5" transform="matrix(0.826546 -0.562919 0.562957 0.826452 44.2447 28.0352)" stroke="#BD3193"/>
</g>
</g>
</svg>
